<svg xmlns="http://www.w3.org/2000/svg" viewBox="0 0 86 140" fill="none"><g clip-path="url(#clip0_74_17)"><path d="M21.5 140C33.368 140 43 129.547 43 116.667V93.3334H21.5C9.632 93.3334 0 103.787 0 116.667C0 129.547 9.632 140 21.5 140Z" fill="#0ACF83"></path><path d="M0 70C0 57.12 9.632 46.6667 21.5 46.6667H43V93.3334H21.5C9.632 93.3334 0 82.88 0 70Z" fill="#A259FF"></path><path d="M0 23.3333C0 10.4533 9.632 0 21.5 0H43V46.6667H21.5C9.632 46.6667 0 36.2133 0 23.3333Z" fill="#F24E1E"></path><path d="M43 0H64.5C76.368 0 86 10.4533 86 23.3333C86 36.2133 76.368 46.6667 64.5 46.6667H43V0Z" fill="#FF7262"></path><path d="M86 70C86 82.88 76.368 93.3334 64.5 93.3334C52.632 93.3334 43 82.88 43 70C43 57.12 52.632 46.6667 64.5 46.6667C76.368 46.6667 86 57.12 86 70Z" fill="#1ABCFE"></path></g><defs><clipPath id="clip0_74_17"><rect width="86" height="140" fill="white"></rect></clipPath></defs></svg>