<svg xmlns="http://www.w3.org/2000/svg" viewBox="0 0 122 122" fill="none"><path d="M0 0V122H122V0H0ZM66.392 95.1491C66.392 107.022 59.4205 112.442 49.2629 112.442C40.0857 112.442 34.7754 107.703 32.0522 101.957L41.3929 96.3201C43.1902 99.5063 44.8241 102.202 48.7728 102.202C52.5308 102.202 54.9272 100.732 54.9272 94.9857V56.0165H66.392V95.1491V95.1491ZM93.5152 112.442C82.8674 112.442 75.9777 107.376 72.6281 100.732L81.9688 95.3397C84.4196 99.3429 87.633 102.311 93.2701 102.311C98.0085 102.311 101.058 99.942 101.058 96.6469C101.058 92.7254 97.954 91.3366 92.6982 89.0219L89.8388 87.7964C81.5603 84.2835 76.0866 79.8446 76.0866 70.504C76.0866 61.8987 82.6496 55.3629 92.8616 55.3629C100.16 55.3629 105.388 57.8955 109.146 64.5402L100.214 70.2589C98.2536 66.746 96.1295 65.3571 92.8344 65.3571C89.4848 65.3571 87.3607 67.4813 87.3607 70.2589C87.3607 73.6902 89.4848 75.079 94.4138 77.2304L97.2732 78.4558C107.022 82.6223 112.496 86.8978 112.496 96.4835C112.496 106.777 104.381 112.442 93.5152 112.442V112.442Z" fill="#F9B305"></path></svg>