<svg width="76" height="76" viewBox="0 0 76 76" fill="none" xmlns="http://www.w3.org/2000/svg">
<circle cx="38" cy="38" r="38" fill="#20222E"/>
<path d="M38.1698 62.9996C37.4953 62.9999 36.8326 62.8225 36.2483 62.4853L30.134 58.8657C29.2215 58.3549 29.6662 58.1746 29.968 58.0692C30.9385 57.7694 31.8677 57.3495 32.734 56.8192C32.8066 56.7857 32.8864 56.7712 32.9661 56.7771C33.0458 56.7831 33.1227 56.8092 33.1894 56.8531L37.8876 59.6442C37.9751 59.6905 38.0726 59.7147 38.1716 59.7147C38.2705 59.7147 38.368 59.6905 38.4555 59.6442L56.777 49.0692C56.8628 49.0178 56.9337 48.945 56.9828 48.858C57.032 48.771 57.0577 48.6727 57.0574 48.5727V27.419C57.0575 27.3175 57.0314 27.2177 56.9816 27.1292C56.9319 27.0406 56.8602 26.9664 56.7735 26.9137L38.4519 16.3475C38.3655 16.2989 38.2681 16.2733 38.1689 16.2733C38.0697 16.2733 37.9723 16.2989 37.8859 16.3475L19.575 26.9172C19.4877 26.9689 19.4152 27.0422 19.3645 27.1301C19.3138 27.2181 19.2867 27.3176 19.2857 27.419V48.5638C19.286 48.6635 19.3128 48.7614 19.3633 48.8474C19.4138 48.9333 19.4863 49.0043 19.5732 49.0531L24.5983 51.9531C27.3215 53.3138 28.9894 51.7103 28.9894 50.0995V29.2226C28.9894 29.0805 29.0458 28.9443 29.1463 28.8438C29.2468 28.7433 29.383 28.6869 29.5251 28.6869H31.8465C31.9886 28.6869 32.1249 28.7433 32.2253 28.8438C32.3258 28.9443 32.3823 29.0805 32.3823 29.2226V50.1013C32.3823 53.7353 30.4037 55.8156 26.9572 55.8156C25.4704 55.8415 24.0069 55.4439 22.7376 54.6692L17.9215 51.9067C17.3368 51.5662 16.8517 51.0783 16.5145 50.4917C16.1773 49.9052 15.9999 49.2404 16 48.5638V27.419C15.9983 26.7414 16.1749 26.0753 16.5122 25.4875C16.8495 24.8998 17.3355 24.4112 17.9215 24.0708L36.2448 13.4922C36.835 13.1692 37.497 13 38.1698 13C38.8426 13 39.5046 13.1692 40.0948 13.4922L58.4163 24.0708C59.0009 24.4106 59.4862 24.8978 59.8237 25.4838C60.1611 26.0697 60.339 26.7339 60.3396 27.4101V48.5638C60.3386 49.2404 60.1605 49.9049 59.8231 50.4914C59.4857 51.0778 59.0007 51.5658 58.4163 51.9067L40.0948 62.4853C39.5095 62.823 38.8455 63.0004 38.1698 62.9996V62.9996Z" fill="#7ADF60"/>
<path d="M34.6947 41.487C34.6947 41.3449 34.7512 41.2087 34.8516 41.1082C34.9521 41.0077 35.0884 40.9513 35.2305 40.9513H37.6001C37.7267 40.9517 37.8491 40.9969 37.9455 41.079C38.042 41.161 38.1062 41.2746 38.1269 41.3995C38.484 43.812 39.5555 45.0281 44.4001 45.0281C48.2591 45.0281 49.9038 44.1549 49.9038 42.1067C49.9038 40.9263 49.4377 40.0495 43.4394 39.462C38.4251 38.9656 35.3251 37.8549 35.3251 33.8477C35.3251 30.1512 38.4412 27.9459 43.6644 27.9459C49.5341 27.9459 52.4395 29.9834 52.8073 34.3548C52.813 34.4278 52.8036 34.5012 52.7797 34.5704C52.7559 34.6396 52.7181 34.7032 52.6688 34.7572C52.6194 34.8113 52.5595 34.8546 52.4927 34.8846C52.426 34.9146 52.3537 34.9306 52.2806 34.9316H49.8948C49.7751 34.9299 49.6595 34.8882 49.5663 34.8131C49.473 34.7381 49.4077 34.6339 49.3805 34.5173C48.8109 31.9798 47.4162 31.1691 43.6662 31.1691C39.4519 31.1691 38.9626 32.637 38.9626 33.737C38.9626 35.0691 39.5412 35.4584 45.2305 36.2102C50.8609 36.9548 53.5359 38.0084 53.5359 41.9656C53.5359 45.9585 50.2073 48.2442 44.4019 48.2442C36.3751 48.2549 34.6947 44.5745 34.6947 41.487V41.487Z" fill="#7ADF60"/>
</svg>
