<svg width="76" height="76" viewBox="0 0 76 76" fill="none" xmlns="http://www.w3.org/2000/svg">
<circle cx="38" cy="38" r="38" fill="#20222E"/>
<path d="M42.7551 19.3307C40.6804 16.9295 38.8774 14.5283 38.5317 14H38.4576C38.1118 14.5043 36.3088 16.9295 34.2342 19.3307C16.4514 41.3977 37.0498 56.2851 37.0498 56.2851L37.2226 56.4052C37.3708 58.6863 37.766 62 37.766 62H39.2973C39.2973 62 39.6678 58.7104 39.816 56.4052L39.9889 56.2611C39.9889 56.2611 60.5378 41.3977 42.7551 19.3307V19.3307ZM38.4576 55.949C38.0247 55.6033 37.6276 55.2172 37.272 54.7964L38.4576 30.7844L39.569 54.7964C39.2358 55.213 38.8637 55.5989 38.4576 55.949V55.949Z" fill="#4ECB71"/>
</svg>
