<svg width="76" height="76" viewBox="0 0 76 76" fill="none" xmlns="http://www.w3.org/2000/svg">
<circle cx="38" cy="38" r="38" fill="#20222E"/>
<rect x="27" y="26" width="23" height="23" fill="white"/>
<path fillRule="evenodd" clipRule="evenodd" d="M21.6317 15C18.435 15 16.0713 17.8221 16.1787 20.8795C16.279 23.8216 16.1483 27.6275 15.1987 30.732C14.242 33.8436 12.632 35.8159 10 36.0701V38.9299C12.632 39.1817 14.2443 41.1541 15.1963 44.268C16.1483 47.3725 16.279 51.1784 16.1763 54.1182C16.0713 57.1779 18.435 60 21.6317 60H54.373C57.5697 60 59.9333 57.1779 59.826 54.1182C59.7257 51.1784 59.8563 47.3725 60.806 44.268C61.7603 41.1541 63.368 39.1841 66 38.9299V36.0701C63.368 35.8159 61.7603 33.8436 60.806 30.732C59.8563 27.6251 59.7257 23.8192 59.826 20.8795C59.9333 17.8197 57.5673 15 54.373 15H21.6317ZM47.9633 42.7005C47.9633 46.9135 44.8483 49.4673 39.68 49.4673H30.881C30.6291 49.4673 30.3876 49.3664 30.2095 49.1867C30.0314 49.0071 29.9313 48.7634 29.9313 48.5093V26.4883C29.932 26.2347 30.0323 25.9916 30.2103 25.8125C30.3883 25.6333 30.6295 25.5327 30.881 25.5327H39.631C43.9407 25.5327 46.771 27.8864 46.771 31.504C46.771 34.0413 44.867 36.3126 42.4427 36.7127V36.8445C45.7443 37.2093 47.9657 39.5159 47.9657 42.7005H47.9633ZM38.7233 28.5666H33.7067V35.7171H37.9323C41.199 35.7171 43.0003 34.3896 43.0003 32.0171C43.0003 29.7952 41.451 28.5666 38.7233 28.5666ZM33.7067 38.5533V46.431H38.91C42.3097 46.431 44.1133 45.0541 44.1133 42.4674C44.1133 39.8784 42.2607 38.5533 38.6907 38.5533H33.7067V38.5533Z" fill="#9747FF"/>
</svg>
