<svg width="76" height="76" viewBox="0 0 76 76" fill="none" xmlns="http://www.w3.org/2000/svg">
<circle cx="38" cy="38" r="38" fill="#20222E"/>
<path d="M38 20C30.0001 20 24.9999 24.0001 23 32C26 27.9999 29.4999 26.4999 33.5 27.5C35.7821 28.0705 37.4134 29.7263 39.219 31.5589C42.1604 34.5446 45.5645 38 53 38C60.9999 38 66.0001 33.9999 68 26C65 30.0001 61.5001 31.5001 57.5 30.5C55.2179 29.9295 53.5866 28.2737 51.781 26.4411C48.8396 23.4554 45.4355 20 38 20ZM23 38C15.0001 38 9.99992 42.0001 8 50C11 45.9999 14.4999 44.4999 18.5 45.5C20.7821 46.0705 22.4134 47.7263 24.219 49.5589C27.1604 52.5446 30.5645 56 38 56C45.9999 56 51.0001 51.9999 53 44C50 48.0001 46.5001 49.5001 42.5 48.5C40.2179 47.9295 38.5866 46.2737 36.781 44.4411C33.8396 41.4554 30.4355 38 23 38Z" fill="url(#paint0_linear_117_5)"/>
<defs>
<linearGradient id="paint0_linear_117_5" x1="6.3332" y1="31.52" x2="58.153" y2="61.3984" gradientUnits="userSpaceOnUse">
<stop stop-color="#2298BD"/>
<stop offset="1" stop-color="#0ED7B5"/>
</linearGradient>
</defs>
</svg>
