<svg width="72" height="72" viewBox="0 0 72 72" fill="none" xmlns="http://www.w3.org/2000/svg">
<circle cx="36" cy="36" r="36" fill="#25262A"/>
<path d="M51.4656 28.613C50.9547 28.4407 50.4396 28.281 49.9206 28.1342C50.0078 27.7838 50.088 27.4377 50.1593 27.0977C51.3289 21.5139 50.5642 17.0155 47.9526 15.5344C45.4485 14.1145 41.3533 15.595 37.2174 19.1349C36.8098 19.4844 36.4113 19.844 36.0221 20.2133C35.7616 19.9677 35.4965 19.7269 35.2269 19.491C30.8923 15.706 26.5476 14.1108 23.9387 15.5961C21.4369 17.0204 20.6961 21.2493 21.7491 26.5411C21.8538 27.0652 21.9721 27.5866 22.1038 28.1048C21.4888 28.2767 20.8954 28.4596 20.3274 28.6544C15.2454 30.3969 12 33.1277 12 35.9602C12 38.8857 15.4841 41.8201 20.7773 43.5993C21.2064 43.743 21.6391 43.8761 22.0749 43.9986C21.9334 44.5567 21.8077 45.1186 21.6981 45.6836C20.6942 50.8837 21.4781 55.0125 23.9732 56.4278C26.5502 57.8894 30.8754 56.3872 35.0869 52.7666C35.4284 52.4722 35.7624 52.1695 36.0885 51.8588C36.5099 52.2587 36.9426 52.6469 37.386 53.0231C41.4656 56.4754 45.4946 57.8694 47.9873 56.4503C50.5618 54.9845 51.3986 50.549 50.3122 45.1525C50.2267 44.7298 50.1307 44.3091 50.0244 43.8909C50.3282 43.8024 50.6263 43.7113 50.9169 43.6165C56.4197 41.8236 60 38.9248 60 35.9602C60 33.1174 56.6497 30.3682 51.4656 28.613ZM50.2721 41.7024C50.0096 41.7878 49.7404 41.8702 49.4659 41.9505C48.8584 40.0591 48.0386 38.048 47.0353 35.97C47.9927 33.9416 48.7809 31.9562 49.3714 30.0772C49.8624 30.217 50.3389 30.3643 50.7982 30.5197C55.2401 32.0237 57.9495 34.247 57.9495 35.9602C57.9495 37.7851 55.0234 40.154 50.2721 41.7024ZM48.3008 45.5442C48.7811 47.9303 48.8496 50.0878 48.5314 51.7745C48.2456 53.2901 47.6707 54.3004 46.9597 54.7052C45.4472 55.5663 42.2122 54.447 38.7234 51.4944C38.311 51.1447 37.9085 50.7837 37.5165 50.412C38.8691 48.9572 40.2208 47.2661 41.5401 45.3878C43.8606 45.1854 46.0528 44.8542 48.0409 44.4022C48.1366 44.7808 48.2233 45.1616 48.3008 45.5442ZM28.3643 54.5563C26.8864 55.0695 25.7092 55.0843 24.9977 54.6808C23.4836 53.8221 22.8542 50.5068 23.7127 46.0598C23.8148 45.5343 23.9317 45.0117 24.0632 44.4926C26.0293 44.9204 28.2056 45.228 30.5316 45.4135C31.8598 47.2514 33.2505 48.9407 34.6521 50.4199C34.3542 50.7033 34.0493 50.9795 33.7376 51.2482C31.8752 52.8492 30.009 53.9851 28.3643 54.5563ZM21.4406 41.6912C19.1001 40.9044 17.1671 39.8819 15.8423 38.7661C14.6516 37.7635 14.0507 36.7679 14.0507 35.9602C14.0507 34.2413 16.6564 32.0488 21.0024 30.5586C21.5299 30.3779 22.0819 30.2074 22.6547 30.0473C23.2554 31.9687 24.0433 33.9778 24.9941 36.0093C24.0309 38.0709 23.2318 40.112 22.6252 42.0561C22.2274 41.944 21.8324 41.8224 21.4406 41.6912ZM23.7615 26.1537C22.8594 21.6199 23.4585 18.1998 24.9662 17.3415C26.5719 16.4272 30.1228 17.7307 33.8655 20.999C34.1096 21.2126 34.3497 21.4306 34.5857 21.6527C33.1911 23.1255 31.8131 24.8023 30.4967 26.6293C28.2392 26.8351 26.0782 27.1655 24.0915 27.6083C23.9691 27.1263 23.8591 26.6412 23.7615 26.1537ZM44.4666 31.1819C43.9973 30.3847 43.5106 29.5976 43.0069 28.8211C44.5384 29.0115 46.0057 29.2643 47.3837 29.5734C46.9701 30.8775 46.4544 32.2407 45.8475 33.6385C45.4039 32.8107 44.9435 31.9916 44.4666 31.1819ZM36.0231 23.094C36.9688 24.1017 37.9161 25.2267 38.8478 26.4475C36.9578 26.3597 35.0646 26.3593 33.1746 26.4464C34.1072 25.2369 35.0625 24.1133 36.0231 23.094ZM27.5254 31.1957C27.0544 31.999 26.6026 32.8129 26.1703 33.6368C25.5733 32.2441 25.0624 30.8745 24.6452 29.552C26.0147 29.2507 27.4751 29.0043 28.9969 28.8174C28.4875 29.5987 27.9969 30.3918 27.5254 31.1957ZM29.0406 43.2466C27.4684 43.074 25.986 42.8404 24.6169 42.5472C25.0406 41.2011 25.5628 39.8024 26.1727 38.3797C26.6068 39.2043 27.0605 40.0187 27.5334 40.8223C28.0198 41.6484 28.5234 42.4576 29.0406 43.2466ZM36.0797 48.9685C35.1077 47.9373 34.1383 46.7965 33.1916 45.5695C34.1108 45.6049 35.0477 45.6229 36 45.6229C36.9784 45.6229 37.9455 45.6014 38.8974 45.5597C37.9628 46.8088 37.0191 47.9514 36.0797 48.9685ZM45.8668 38.3071C46.5084 39.7454 47.0492 41.1367 47.4786 42.4598C46.0869 42.7721 44.5843 43.0237 43.0011 43.2105C43.5084 42.4195 43.9997 41.6187 44.4746 40.8085C44.9575 39.9849 45.4217 39.1509 45.8668 38.3071ZM42.6984 39.8009C41.9713 41.0431 41.2034 42.2617 40.3958 43.4548C38.9328 43.5567 37.4666 43.6073 36 43.6065C34.5062 43.6065 33.0533 43.5608 31.6541 43.4716C30.8254 42.2812 30.0428 41.0605 29.3079 39.812C28.5765 38.5701 27.8935 37.3013 27.2601 36.0084C27.8919 34.7152 28.573 33.4458 29.3019 32.2029C30.0306 30.9598 30.8067 29.7444 31.6292 28.5592C33.0566 28.453 34.5204 28.3977 35.9998 28.3977C37.4859 28.3977 38.9518 28.4535 40.3789 28.5605C41.193 29.7439 41.9644 30.9553 42.6917 32.1922C43.423 33.4324 44.1131 34.6955 44.7609 35.9798C44.1198 37.2772 43.4318 38.5517 42.6984 39.8009ZM46.9284 17.2814C48.5357 18.193 49.1608 21.8694 48.1509 26.6905C48.0864 26.9981 48.0141 27.3114 47.9353 27.6291C45.9437 27.1769 43.7813 26.8408 41.5172 26.6319C40.1983 24.7847 38.8316 23.1054 37.4597 21.6516C37.8192 21.3108 38.1874 20.9787 38.5637 20.6559C42.1074 17.623 45.4194 16.4256 46.9284 17.2814ZM36 31.7449C38.3672 31.7449 40.2863 33.6322 40.2863 35.9602C40.2863 38.2883 38.3672 40.1756 36 40.1756C33.6328 40.1756 31.7137 38.2883 31.7137 35.9602C31.7137 33.6322 33.6328 31.7449 36 31.7449Z" fill="#5FD6F5"/>
</svg>
