<svg xmlns="http://www.w3.org/2000/svg" viewBox="0 0 194 116" fill="none"><path d="M97 0C71.1336 0 54.9664 12.8891 48.5 38.6667C58.2 25.7775 69.5164 20.9442 82.45 24.1667C89.8288 26.0048 95.1032 31.3404 100.941 37.2454C110.452 46.866 121.458 58 145.5 58C171.366 58 187.534 45.1109 194 19.3333C184.3 32.2225 172.984 37.0558 160.05 33.8333C152.671 31.9952 147.397 26.6596 141.559 20.7546C132.048 11.134 121.042 0 97 0ZM48.5 58C22.6336 58 6.46641 70.8891 0 96.6667C9.7 83.7775 21.0164 78.9442 33.95 82.1667C41.3288 84.0048 46.6032 89.3404 52.4414 95.2454C61.9519 104.866 72.9584 116 97 116C122.866 116 139.034 103.111 145.5 77.3333C135.8 90.2225 124.484 95.0558 111.55 91.8333C104.171 89.9952 98.8968 84.6596 93.0586 78.7546C83.5481 69.134 72.5416 58 48.5 58Z" fill="url(#paint0_linear_74_28)"></path><defs><linearGradient id="paint0_linear_74_28" x1="-5.38932" y1="37.12" x2="161.873" y2="133.893" gradientUnits="userSpaceOnUse"><stop stop-color="#2298BD"></stop><stop offset="1" stop-color="#0ED7B5"></stop></linearGradient></defs></svg>