<svg xmlns="http://www.w3.org/2000/svg" viewBox="0 0 138 138" fill="none"><circle cx="69" cy="69" r="69" fill="#FAFAFA"></circle><path d="M108.96 66.0071C108.96 58.6931 106.329 53.6303 104.078 49.6886L103.388 48.5674C100.654 44.1686 98.2646 40.3046 98.2646 35.8024C98.2646 30.3686 102.387 25.2971 108.201 25.2971C108.373 25.2971 108.537 25.3144 108.701 25.323L108.968 25.3489C98.0677 15.3365 83.801 9.78863 69 9.80662C59.1905 9.80158 49.5339 12.2373 40.9004 16.8944C32.2668 21.5514 24.9277 28.2834 19.5443 36.4837C20.9243 36.5269 22.2439 36.5614 23.3565 36.5614C29.5406 36.5614 39.123 35.811 39.123 35.811C42.3143 35.6212 42.6938 40.3046 39.5025 40.6841C39.5025 40.6841 36.3026 41.0636 32.7319 41.2447L54.2944 105.363L67.2319 66.4987L58.0031 41.2361C54.8205 41.0464 51.8018 40.6755 51.8018 40.6755C48.6105 40.4857 48.99 35.604 52.1726 35.7937C52.1726 35.7937 61.9534 36.5441 67.7666 36.5441C73.9594 36.5441 83.5504 35.7937 83.5504 35.7937C86.7416 35.604 87.1125 40.296 83.9212 40.6755C83.9212 40.6755 80.7128 41.0464 77.1506 41.2361L98.5406 104.863L104.44 85.1374L104.906 83.6452C107.235 76.2277 108.951 70.7509 108.951 65.9985L108.96 66.0071ZM9.80663 69C9.80604 80.1154 12.9347 91.0065 18.8347 100.427C24.7346 109.847 33.1674 117.416 43.1681 122.268L14.9213 44.9017C11.5388 52.4848 9.79589 60.6967 9.80663 69V69Z" fill="#1D88B9"></path><path d="M52.2761 125.778L70.0436 74.175L88.2337 124.027C88.3545 124.312 88.4925 124.579 88.6564 124.838C76.9302 128.969 64.2 129.298 52.2761 125.778V125.778ZM120.931 40.5979C121.19 42.4867 121.336 44.505 121.336 46.6871C121.336 52.6901 120.215 59.4435 116.834 67.8874L98.7562 120.155C112.097 112.404 121.882 99.749 126.026 84.8873C130.17 70.0257 128.345 54.1333 120.94 40.5979H120.931Z" fill="#1D88B9"></path><path fill-rule="evenodd" clip-rule="evenodd" d="M0 69C0 30.9551 30.9551 0 69 0C107.036 0 138 30.9551 138 69C138 107.045 107.036 138 69 138C30.9551 138 0 107.045 0 69ZM3.16538 69C3.16538 105.303 32.6974 134.835 69 134.835C105.294 134.835 134.826 105.303 134.826 69C134.826 32.6887 105.294 3.16538 69 3.16538C32.6887 3.16538 3.16538 32.6887 3.16538 69Z" fill="#1D88B9"></path></svg>